REM DIRINDEX 1\3,1\2\4,1\2\5,1\2\6
REM DIRNAME cjc137,folder01,folder02,folder03,folder04,folder05
TITLE ""
FILE "050.mp3" MP3
  TRACK 01 AUDIO
    TITLE "4:cjc137_2056"
    INDEX 01 00:00:00
  TRACK 02 AUDIO
    TITLE "0:"
    INDEX 01 00:00:74
  TRACK 03 AUDIO
    TITLE "6:cjc137_2057"
    INDEX 01 00:01:07
  TRACK 04 AUDIO
    TITLE "0:"
    INDEX 01 00:01:66
  TRACK 05 AUDIO
    TITLE "5:cjc137_2058"
    INDEX 01 00:01:71
  TRACK 06 AUDIO
    TITLE "0:"
    INDEX 01 00:02:71
  TRACK 07 AUDIO
    TITLE "4:cjc137_2059"
    INDEX 01 00:04:05
  TRACK 08 AUDIO
    TITLE "0:"
    INDEX 01 00:05:05
  TRACK 09 AUDIO
    TITLE "6:cjc137_2060"
    INDEX 01 00:05:14
  TRACK 10 AUDIO
    TITLE "0:"
    INDEX 01 00:06:33
  TRACK 11 AUDIO
    TITLE "5:cjc137_2061"
    INDEX 01 00:06:39
  TRACK 12 AUDIO
    TITLE "0:"
    INDEX 01 00:07:41
  TRACK 13 AUDIO
    TITLE "4:cjc137_2062"
    INDEX 01 00:08:50
  TRACK 14 AUDIO
    TITLE "0:"
    INDEX 01 00:10:04
  TRACK 15 AUDIO
    TITLE "6:cjc137_2063"
    INDEX 01 00:10:10
  TRACK 16 AUDIO
    TITLE "0:"
    INDEX 01 00:11:25
  TRACK 17 AUDIO
    TITLE "5:cjc137_2064"
    INDEX 01 00:11:31
  TRACK 18 AUDIO
    TITLE "0:"
    INDEX 01 00:12:60
  TRACK 19 AUDIO
    TITLE "4:cjc137_2065"
    INDEX 01 00:13:65
  TRACK 20 AUDIO
    TITLE "0:"
    INDEX 01 00:15:09
  TRACK 21 AUDIO
    TITLE "6:cjc137_2066"
    INDEX 01 00:15:19
  TRACK 22 AUDIO
    TITLE "0:"
    INDEX 01 00:16:20
  TRACK 23 AUDIO
    TITLE "5:cjc137_2067"
    INDEX 01 00:16:26
  TRACK 24 AUDIO
    TITLE "0:"
    INDEX 01 00:17:47
  TRACK 25 AUDIO
    TITLE "4:cjc137_2068"
    INDEX 01 00:18:54
  TRACK 26 AUDIO
    TITLE "0:"
    INDEX 01 00:19:65
  TRACK 27 AUDIO
    TITLE "6:cjc137_2069"
    INDEX 01 00:19:71
  TRACK 28 AUDIO
    TITLE "0:"
    INDEX 01 00:20:73
  TRACK 29 AUDIO
    TITLE "5:cjc137_2070"
    INDEX 01 00:21:04
  TRACK 30 AUDIO
    TITLE "0:"
    INDEX 01 00:22:15
  TRACK 31 AUDIO
    TITLE "4:cjc137_2071"
    INDEX 01 00:23:24
  TRACK 32 AUDIO
    TITLE "0:"
    INDEX 01 00:24:33
  TRACK 33 AUDIO
    TITLE "6:cjc137_2072"
    INDEX 01 00:24:39
  TRACK 34 AUDIO
    TITLE "0:"
    INDEX 01 00:25:39
  TRACK 35 AUDIO
    TITLE "5:cjc137_2073"
    INDEX 01 00:25:52
  TRACK 36 AUDIO
    TITLE "0:"
    INDEX 01 00:26:60
  TRACK 37 AUDIO
    TITLE "4:cjc137_2074"
    INDEX 01 00:27:67
  TRACK 38 AUDIO
    TITLE "0:"
    INDEX 01 00:29:01
  TRACK 39 AUDIO
    TITLE "6:cjc137_2075"
    INDEX 01 00:29:07
  TRACK 40 AUDIO
    TITLE "0:"
    INDEX 01 00:29:68
  TRACK 41 AUDIO
    TITLE "5:cjc137_2076"
    INDEX 01 00:29:74
  TRACK 42 AUDIO
    TITLE "0:"
    INDEX 01 00:31:08
  TRACK 43 AUDIO
    TITLE "4:cjc137_2077"
    INDEX 01 00:32:17
  TRACK 44 AUDIO
    TITLE "0:"
    INDEX 01 00:33:13
  TRACK 45 AUDIO
    TITLE "6:cjc137_2078"
    INDEX 01 00:33:21
  TRACK 46 AUDIO
    TITLE "0:"
    INDEX 01 00:34:28
  TRACK 47 AUDIO
    TITLE "5:cjc137_2079"
    INDEX 01 00:34:36
  TRACK 48 AUDIO
    TITLE "0:"
    INDEX 01 00:35:33
  TRACK 49 AUDIO
    TITLE "4:cjc137_2080"
    INDEX 01 00:36:38
  TRACK 50 AUDIO
    TITLE "0:"
    INDEX 01 00:37:50
  TRACK 51 AUDIO
    TITLE "6:cjc137_2081"
    INDEX 01 00:37:59
  TRACK 52 AUDIO
    TITLE "0:"
    INDEX 01 00:38:59
  TRACK 53 AUDIO
    TITLE "5:cjc137_2082"
    INDEX 01 00:38:65
  TRACK 54 AUDIO
    TITLE "0:"
    INDEX 01 00:40:01
  TRACK 55 AUDIO
    TITLE "4:cjc137_2083"
    INDEX 01 00:41:08
  TRACK 56 AUDIO
    TITLE "0:"
    INDEX 01 00:42:18
  TRACK 57 AUDIO
    TITLE "6:cjc137_2084"
    INDEX 01 00:42:27
  TRACK 58 AUDIO
    TITLE "0:"
    INDEX 01 00:43:42
  TRACK 59 AUDIO
    TITLE "5:cjc137_2085"
    INDEX 01 00:43:48
  TRACK 60 AUDIO
    TITLE "0:"
    INDEX 01 00:44:56
  TRACK 61 AUDIO
    TITLE "4:cjc137_2086"
    INDEX 01 00:45:65
  TRACK 62 AUDIO
    TITLE "0:"
    INDEX 01 00:47:03
  TRACK 63 AUDIO
    TITLE "6:cjc137_2087"
    INDEX 01 00:47:11
  TRACK 64 AUDIO
    TITLE "0:"
    INDEX 01 00:47:72
  TRACK 65 AUDIO
    TITLE "5:cjc137_2088"
    INDEX 01 00:48:06
  TRACK 66 AUDIO
    TITLE "0:"
    INDEX 01 00:49:18
  TRACK 67 AUDIO
    TITLE "4:cjc137_2089"
    INDEX 01 00:50:27
  TRACK 68 AUDIO
    TITLE "0:"
    INDEX 01 00:51:36
  TRACK 69 AUDIO
    TITLE "6:cjc137_2090"
    INDEX 01 00:51:44
  TRACK 70 AUDIO
    TITLE "0:"
    INDEX 01 00:52:51
  TRACK 71 AUDIO
    TITLE "5:cjc137_2091"
    INDEX 01 00:52:57
  TRACK 72 AUDIO
    TITLE "0:"
    INDEX 01 00:53:66
  TRACK 73 AUDIO
    TITLE "4:cjc137_2092"
    INDEX 01 00:55:01
  TRACK 74 AUDIO
    TITLE "0:"
    INDEX 01 00:56:12
  TRACK 75 AUDIO
    TITLE "6:cjc137_2093"
    INDEX 01 00:56:20
  TRACK 76 AUDIO
    TITLE "0:"
    INDEX 01 00:57:33
  TRACK 77 AUDIO
    TITLE "5:cjc137_2094"
    INDEX 01 00:57:39
  TRACK 78 AUDIO
    TITLE "0:"
    INDEX 01 00:58:52
  TRACK 79 AUDIO
    TITLE "4:cjc137_2095"
    INDEX 01 00:59:59
  TRACK 80 AUDIO
    TITLE "0:"
    INDEX 01 01:00:64
  TRACK 81 AUDIO
    TITLE "6:cjc137_2096"
    INDEX 01 01:00:72
  TRACK 82 AUDIO
    TITLE "0:"
    INDEX 01 01:01:72
  TRACK 83 AUDIO
    TITLE "5:cjc137_2097"
    INDEX 01 01:02:05
  TRACK 84 AUDIO
    TITLE "0:"
    INDEX 01 01:03:10
